<svg width="196" height="196" viewBox="0 0 196 196" fill="none" xmlns="http://www.w3.org/2000/svg">
<path d="M129 80.0002L111.016 98L129.023 116C130.749 117.726 131.719 120.067 131.719 122.508C131.719 124.949 130.749 127.289 129.023 129.015C127.297 130.741 124.956 131.711 122.515 131.711C120.074 131.711 117.734 130.741 116.008 129.015L98 111.016L80.0002 129.023C78.2742 130.749 75.9333 131.719 73.4924 131.719C71.0515 131.719 68.7105 130.749 66.9846 129.023C65.2586 127.297 64.2889 124.956 64.2889 122.515C64.2889 120.074 65.2586 117.733 66.9846 116.008L84.9844 98L66.9999 80.0002C66.1453 79.1455 65.4673 78.131 65.0048 77.0144C64.5423 75.8977 64.3043 74.701 64.3043 73.4923C64.3043 71.0514 65.2739 68.7105 66.9999 66.9845C68.7259 65.2586 71.0668 64.2889 73.5077 64.2889C75.9486 64.2889 78.2895 65.2586 80.0155 66.9845L98 84.9844L116 66.9769C117.726 65.2509 120.067 64.2813 122.508 64.2813C124.949 64.2813 127.29 65.2509 129.016 66.9769C130.741 68.7029 131.711 71.0438 131.711 73.4847C131.711 75.9256 130.741 78.2665 129.016 79.9925L129 80.0002ZM180.688 98C180.688 114.354 175.838 130.341 166.752 143.939C157.666 157.537 144.752 168.135 129.643 174.393C114.534 180.652 97.9083 182.289 81.8685 179.099C65.8287 175.908 51.0952 168.033 39.5311 156.469C27.9671 144.905 20.0919 130.171 16.9014 114.132C13.7108 98.0917 15.3483 81.466 21.6067 66.3569C27.8652 51.2477 38.4634 38.3337 52.0613 29.2479C65.6592 20.162 81.646 15.3125 98 15.3125C119.923 15.3368 140.94 24.0563 156.442 39.558C171.944 55.0596 180.663 76.0774 180.688 98ZM162.313 98C162.313 85.2802 158.541 72.846 151.474 62.2699C144.407 51.6938 134.363 43.4507 122.611 38.583C110.86 33.7153 97.9287 32.4417 85.4533 34.9232C72.9779 37.4048 61.5185 43.5299 52.5242 52.5242C43.53 61.5185 37.4048 72.9779 34.9233 85.4533C32.4418 97.9287 33.7154 110.86 38.583 122.611C43.4507 134.363 51.6938 144.407 62.2699 151.474C72.8461 158.541 85.2802 162.313 98 162.313C115.051 162.294 131.399 155.513 143.456 143.456C155.513 131.399 162.294 115.051 162.313 98Z" fill="#010A30"/>
</svg>
