<svg width="310" height="310" viewBox="0 0 310 310" fill="none" xmlns="http://www.w3.org/2000/svg">
<path d="M38.75 38.6939H77.5V77.3878H38.75V38.6939Z" fill="#181842"/>
<path fill-rule="evenodd" clip-rule="evenodd" d="M116.25 0V116.082H0V0H116.25ZM96.875 19.3469H19.375V96.7347H96.875V19.3469Z" fill="#181842"/>
<path d="M38.75 232.163V270.857H77.5V232.163H38.75Z" fill="#181842"/>
<path fill-rule="evenodd" clip-rule="evenodd" d="M116.25 309.551V193.469H0V309.551H116.25ZM19.375 290.204V212.816H96.875V290.204H19.375Z" fill="#181842"/>
<path d="M271.25 38.6939H232.5V77.3878H271.25V38.6939Z" fill="#181842"/>
<path fill-rule="evenodd" clip-rule="evenodd" d="M193.75 0V116.082H310V0H193.75ZM290.625 19.3469V96.7347H213.125V19.3469H290.625Z" fill="#181842"/>
<path d="M155 19.3469V0H174.375V38.6939H155V77.3878H135.625V19.3469H155Z" fill="#181842"/>
<path d="M155 116.082V77.3878H174.375V116.082H155Z" fill="#181842"/>
<path d="M116.25 154.776V135.429H135.625V116.082H155V154.776H174.375V135.429H271.25V154.776H193.75V174.122H135.625V154.776H116.25Z" fill="#181842"/>
<path d="M116.25 154.776V174.122H38.75V154.776H19.375V174.122H0V135.429H58.125V154.776H116.25Z" fill="#181842"/>
<path d="M310 174.122H290.625V135.429H310V174.122Z" fill="#181842"/>
<path d="M290.625 174.122H271.25V212.816H310V193.469H290.625V174.122Z" fill="#181842"/>
<path d="M251.875 174.122V193.469H232.5V212.816H213.125V174.122H251.875Z" fill="#181842"/>
<path d="M251.875 232.163V212.816H232.5V232.163H213.125V251.51H174.375V270.857H232.5V232.163H251.875Z" fill="#181842"/>
<path d="M251.875 232.163H310V251.51H271.25V270.857H251.875V232.163Z" fill="#181842"/>
<path d="M174.375 212.816V232.163H193.75V193.469H135.625V212.816H174.375Z" fill="#181842"/>
<path d="M155 232.163H135.625V309.551H232.5V290.204H155V232.163Z" fill="#181842"/>
<path d="M251.875 309.551H310V270.857H290.625V290.204H251.875V309.551Z" fill="#181842"/>
</svg>
